<?xml version="1.0" encoding="utf-8"?>
<!-- Generator: Adobe Illustrator 23.0.5, SVG Export Plug-In . SVG Version: 6.00 Build 0)  -->
<svg version="1.1" id="Capa_1" xmlns="http://www.w3.org/2000/svg" xmlns:xlink="http://www.w3.org/1999/xlink" x="0px" y="0px"
	 viewBox="0 0 1080 1080" style="enable-background:new 0 0 1080 1080;" xml:space="preserve">
<style type="text/css">
	.st0{fill:#DFB913;}
	.st1{font-family:'HighSchoolUSASans';}
	.st2{font-size:198.8829px;}
	.st3{letter-spacing:-1;}
	.st4{fill:#0032A3;}
	.st5{font-size:58.9283px;}
	.st6{fill:none;stroke:#0032A3;stroke-width:7;}
	.st7{fill:none;stroke:#0032A3;stroke-width:2;}
</style>
<g>
	<g>
		<text transform="matrix(1 0 0 1 309.3452 619.9697)" class="st0 st1 st2 st3">LA BOCA</text>
		<text transform="matrix(1 0 0 1 328.5371 451.3403)" class="st4 st1 st5">UNIVERSIDAD NACIONAL DE</text>
		<g>
			<g>
				<path class="st4" d="M452.61,675.18v-12.17h3.85v12.47c0,4.71,1.77,6.28,4.38,6.28c2.65,0,4.47-1.55,4.47-6.28v-12.47h3.7v12.17
					c0,7.13-3.15,9.91-8.18,9.91C455.83,685.09,452.61,682.29,452.61,675.18z"/>
				<path class="st4" d="M474.43,662.99h3.96l6.74,12.19l2.25,4.62h0.13c-0.18-2.25-0.5-4.99-0.5-7.4v-9.41h3.66v21.69h-3.96
					l-6.74-12.21l-2.25-4.6h-0.13c0.18,2.3,0.5,4.92,0.5,7.33v9.5h-3.66V662.99z"/>
				<path class="st4" d="M500.42,662.99h4.51l7.07,21.69h-4.07l-3.3-11.55c-0.68-2.3-1.33-4.77-1.97-7.15h-0.13
					c-0.59,2.39-1.23,4.86-1.92,7.15l-3.33,11.55h-3.92L500.42,662.99z M497.53,675.79h10.22v3.02h-10.22V675.79z"/>
				<path class="st4" d="M521.3,662.99h13.06v3.24h-9.21v5.56h7.79v3.24h-7.79v6.43h9.54v3.24H521.3V662.99z"/>
				<path class="st4" d="M539.14,662.99h5.78c6.65,0,10.57,3.57,10.57,10.75s-3.92,10.92-10.37,10.92h-5.98V662.99z M544.67,681.57
					c4.36,0,6.87-2.49,6.87-7.81c0-5.34-2.5-7.64-6.87-7.64h-1.68v15.45H544.67z"/>
				<path class="st4" d="M559.75,675.18v-12.17h3.85v12.47c0,4.71,1.77,6.28,4.38,6.28c2.65,0,4.47-1.55,4.47-6.28v-12.47h3.7v12.17
					c0,7.13-3.15,9.91-8.18,9.91S559.75,682.29,559.75,675.18z"/>
				<path class="st4" d="M580.43,673.91c0-7.09,4.44-11.31,9.93-11.31c2.73,0,4.88,1.31,6.24,2.74l-2.06,2.49
					c-1.12-1.1-2.41-1.88-4.11-1.88c-3.54,0-6.06,2.98-6.06,7.84c0,4.95,2.34,7.94,5.97,7.94c1.92,0,3.41-0.88,4.62-2.23l2.06,2.41
					c-1.75,2.04-4.01,3.15-6.83,3.15C584.74,685.09,580.43,681.1,580.43,673.91z"/>
				<path class="st4" d="M604.9,662.99h4.51l7.07,21.69h-4.07l-3.3-11.55c-0.7-2.3-1.33-4.77-1.97-7.15h-0.13
					c-0.59,2.39-1.23,4.86-1.92,7.15l-3.33,11.55h-3.92L604.9,662.99z M602.01,675.79h10.22v3.02h-10.22V675.79z"/>
				<path class="st4" d="M618.02,673.91c0-7.09,4.44-11.31,9.93-11.31c2.73,0,4.88,1.31,6.24,2.74l-2.06,2.49
					c-1.1-1.1-2.41-1.88-4.11-1.88c-3.54,0-6.06,2.98-6.06,7.84c0,4.95,2.34,7.94,5.97,7.94c1.92,0,3.41-0.88,4.62-2.23l2.06,2.41
					c-1.75,2.04-4.01,3.15-6.83,3.15C622.34,685.09,618.02,681.1,618.02,673.91z"/>
				<path class="st4" d="M638.25,662.99h3.85v21.69h-3.85V662.99z"/>
				<path class="st4" d="M646.45,673.75c0-7.02,3.9-11.16,9.56-11.16s9.56,4.16,9.56,11.16c0,7.02-3.92,11.33-9.56,11.33
					S646.45,680.76,646.45,673.75z M661.62,673.75c0-4.86-2.21-7.81-5.62-7.81c-3.41,0-5.62,2.95-5.62,7.81s2.21,7.97,5.62,7.97
					C659.43,681.74,661.62,678.63,661.62,673.75z M653.87,659.94l5.19-4.46l2.08,2.5l-5.58,3.87L653.87,659.94z"/>
				<path class="st4" d="M669.93,662.99h3.96l6.74,12.19l2.25,4.62H683c-0.18-2.25-0.5-4.99-0.5-7.4v-9.41h3.66v21.69h-3.96
					l-6.74-12.21l-2.25-4.6h-0.13c0.18,2.3,0.5,4.92,0.5,7.33v9.5h-3.66V662.99z"/>
				<path class="st4" d="M698.31,662.99h5.78c6.65,0,10.57,3.57,10.57,10.75s-3.92,10.92-10.37,10.92h-5.98V662.99z M703.83,681.57
					c4.36,0,6.87-2.49,6.87-7.81c0-5.34-2.5-7.64-6.87-7.64h-1.68v15.45H703.83z"/>
				<path class="st4" d="M719.02,662.99h13.06v3.24h-9.21v5.56h7.79v3.24h-7.79v6.43h9.54v3.24h-13.39V662.99z"/>
				<path class="st4" d="M743.48,662.99h6.83c4.81,0,8.38,1.68,8.38,6.68c0,4.84-3.57,7.03-8.25,7.03h-3.11v7.97h-3.85
					L743.48,662.99L743.48,662.99z M750.13,673.64c3.24,0,4.77-1.29,4.77-3.96c0-2.69-1.69-3.61-4.92-3.61h-2.67v7.55h2.82V673.64z"
					/>
				<path class="st4" d="M762.78,662.99h7.31c4.51,0,7.97,1.58,7.97,6.43c0,4.66-3.48,6.78-7.97,6.78h-3.46v8.47h-3.85V662.99z
					 M769.68,673.14c2.96,0,4.59-1.23,4.59-3.7c0-2.49-1.62-3.35-4.59-3.35h-3.06v7.05H769.68z M769.37,675.18l2.78-2.3l6.78,11.8
					h-4.33L769.37,675.18z"/>
				<path class="st4" d="M782.41,662.99h3.85v21.69h-3.85V662.99z"/>
				<path class="st4" d="M791.74,662.99h4.35l3.83,10.59c0.48,1.38,0.92,2.84,1.4,4.25h0.13c0.48-1.42,0.88-2.87,1.36-4.25
					l3.76-10.59h4.35v21.69h-3.54v-9.93c0-2.01,0.31-4.88,0.5-6.91h-0.13L806,672.9l-3.57,9.74h-2.28l-3.57-9.74l-1.73-5.05h-0.13
					c0.18,2.01,0.5,4.9,0.5,6.91v9.93h-3.46L791.74,662.99L791.74,662.99z"/>
				<path class="st4" d="M816.44,662.99h13.06v3.24h-9.21v5.56h7.79v3.24h-7.79v6.43h9.54v3.24h-13.39V662.99z"/>
				<path class="st4" d="M834.28,662.99h7.31c4.51,0,7.97,1.58,7.97,6.43c0,4.66-3.48,6.78-7.97,6.78h-3.46v8.47h-3.85V662.99z
					 M841.19,673.14c2.96,0,4.59-1.23,4.59-3.7c0-2.49-1.62-3.35-4.59-3.35h-3.06v7.05H841.19z M840.86,675.18l2.78-2.3l6.78,11.8
					h-4.33L840.86,675.18z"/>
				<path class="st4" d="M858.15,662.99h4.51l7.07,21.69h-4.07l-3.3-11.55c-0.7-2.3-1.33-4.77-1.97-7.15h-0.13
					c-0.59,2.39-1.23,4.86-1.92,7.15l-3.33,11.55h-3.92L858.15,662.99z M855.26,675.79h10.22v3.02h-10.22V675.79z"/>
			</g>
		</g>
		<line class="st6" x1="330.11" y1="639.44" x2="988.84" y2="639.44"/>
		<path class="st7" d="M350.83,671.26h89.98 M878.15,671.26h89.98"/>
	</g>
	<g>
		<path class="st4" d="M225.53,649.61c-40.99,24.46-94.1,12.84-124.47-26.09c-15.76-20.2-24.27-43.22-24.03-69.94
			c0.26-29.13,0.04-58.28,0.17-87.43c0.09-20.96,12.6-35.54,30.42-35.73c19.91-0.22,33,13.55,33.28,35.67
			c0.33,26.7,1.12,53.46,0.13,80.12c-1.77,47.49,29.57,87.91,68.89,98.67C214.76,646.22,219.57,647.8,225.53,649.61z"/>
		<path class="st0" d="M279.34,525.29c-0.02,1.82-0.02,3.65-0.04,5.45c-1.09,17.83,0.29,35.91-3.39,53.42
			c-7.86,37.31-46.07,55.02-76.63,35.78c-10.57-6.67-20.68-14.14-27.01-26.87c4.24-0.39,7.86-0.35,11.34-1.09
			c19.24-4,31.29-19.91,31.53-42.02c0.28-26.09,0.13-52.21,0.31-78.3c0.04-4.82,0.46-9.7,1.31-14.44
			c3.17-17.88,17.62-28.62,35.49-26.65c15.6,1.73,26.65,15.14,26.83,32.74c0.17,17,0.2,33.98,0.29,50.97c0,1.82,0,3.63,0,5.45
			C279.34,522.23,279.34,523.09,279.34,525.29z"/>
	</g>
</g>
</svg>
